<?xml version="1.0" encoding="UTF-8" standalone="no"?>
<svg
   xmlns:dc="http://purl.org/dc/elements/1.1/"
   xmlns:cc="http://creativecommons.org/ns#"
   xmlns:rdf="http://www.w3.org/1999/02/22-rdf-syntax-ns#"
   xmlns:svg="http://www.w3.org/2000/svg"
   xmlns="http://www.w3.org/2000/svg"
   id="svg1715"
   version="1.1"
   viewBox="0 0 210 297"
   height="297mm"
   width="210mm">
  <defs
     id="defs1709" />
  <metadata
     id="metadata1712">
    <rdf:RDF>
      <cc:Work
         rdf:about="">
        <dc:format>image/svg+xml</dc:format>
        <dc:type
           rdf:resource="http://purl.org/dc/dcmitype/StillImage" />
        <dc:title></dc:title>
      </cc:Work>
    </rdf:RDF>
  </metadata>
  <g
     id="layer1">
    <g
       transform="translate(7.8040644,-25.654326)"
       id="g1059">
      <rect
         y="128.79823"
         x="106.80481"
         height="5.1748385"
         width="18.514"
         id="rect3035"
         style="fill:#151211;fill-opacity:1;stroke-width:0.277336" />
      <circle
         r="9.6178617"
         cy="126.45828"
         cx="116.06181"
         id="path3033"
         style="fill:#f8c698;fill-opacity:1;stroke:#151211;stroke-width:1;stroke-miterlimit:4;stroke-dasharray:none;stroke-opacity:1" />
      <path
         id="path3047"
         d="m 128.57008,150.70213 c 3.29293,5.54427 1.84365,9.00713 0.3471,12.44924"
         style="fill:none;stroke:#000000;stroke-width:1;stroke-linecap:butt;stroke-linejoin:miter;stroke-miterlimit:4;stroke-dasharray:none;stroke-opacity:1" />
      <path
         id="path3049"
         d="m 132.54294,153.51 c 1.89278,3.18686 1.05973,5.17731 0.19951,7.15584"
         style="fill:none;stroke:#000000;stroke-width:1;stroke-linecap:butt;stroke-linejoin:miter;stroke-miterlimit:4;stroke-dasharray:none;stroke-opacity:1" />
      <path
         id="path3053"
         d="m 136.61885,155.38432 0.0441,3.13792"
         style="fill:none;stroke:#000000;stroke-width:1;stroke-linecap:butt;stroke-linejoin:miter;stroke-miterlimit:4;stroke-dasharray:none;stroke-opacity:1" />
      <path
         d="m 116.23787,137.52752 a 9.6178615,9.6178615 0 0 0 -9.53431,9.6175 9.6178615,9.6178615 0 0 0 0.48111,3.00395 11.568679,11.568679 0 0 0 -2.43189,7.09569 11.568679,11.568679 0 0 0 11.5688,11.56881 11.568679,11.568679 0 0 0 11.5688,-11.56881 11.568679,11.568679 0 0 0 -2.4324,-7.09569 9.6178615,9.6178615 0 0 0 0.48162,-3.00395 9.6178615,9.6178615 0 0 0 -9.61802,-9.6175 9.6178615,9.6178615 0 0 0 -0.0837,0 z"
         style="fill:#ffffff;fill-opacity:1;stroke:#151211;stroke-width:1;stroke-miterlimit:4;stroke-dasharray:none;stroke-opacity:1"
         id="circle3037" />
      <path
         id="path3153"
         d="m 107.39032,145.35433 c 1.60324,-0.94291 2.04573,-2.43497 2.01952,-4.14878 -1.65644,2.04933 -1.77141,3.05394 -2.01952,4.14878 z"
         style="fill:#f8c698;fill-opacity:1;stroke:none;stroke-width:0.264583px;stroke-linecap:butt;stroke-linejoin:miter;stroke-opacity:1" />
      <path
         id="path3155"
         d="m 122.38375,140.32257 c 0.005,1.85996 1.06944,2.99507 2.56214,3.83749 -0.93302,-2.46436 -1.74224,-3.07068 -2.56214,-3.83749 z"
         style="fill:#f8c698;fill-opacity:1;stroke:none;stroke-width:0.264583px;stroke-linecap:butt;stroke-linejoin:miter;stroke-opacity:1" />
      <path
         id="path3157"
         d="m 112.74374,138.75372 c 0.0879,5.28059 7.02183,5.36863 7.16818,0.008 -2.44485,-0.96606 -4.69489,-0.97882 -7.16818,-0.008 z"
         style="fill:#f8c698;fill-opacity:1;stroke:none;stroke-width:0.264583px;stroke-linecap:butt;stroke-linejoin:miter;stroke-opacity:1" />
      <path
         d="m 127.03059,162.00796 c 0.0668,-0.50937 0.0971,-1.02288 0.0905,-1.53658 -0.0761,-5.93937 -4.9524,-10.69259 -10.89178,-10.61678 -5.93937,0.0758 -10.69283,4.95189 -10.6173,10.89127 0.007,0.50517 0.0488,1.00926 0.12623,1.5085 4.80033,8.62437 16.91343,8.7854 21.29238,-0.24641 z"
         style="fill:none;fill-opacity:1;stroke:#151211;stroke-width:0.499999;stroke-miterlimit:4;stroke-dasharray:0.499999, 0.499999;stroke-dashoffset:0;stroke-opacity:1"
         id="path3055" />
      <g
         id="g3248">
        <rect
           y="156.44896"
           x="114.29038"
           height="4.4652243"
           width="3.2138071"
           id="rect3210"
           style="fill:#f8c698;fill-opacity:1;stroke:none;stroke-width:1.0853;stroke-miterlimit:4;stroke-dasharray:none;stroke-dashoffset:0;stroke-opacity:1" />
        <path
           id="path3218"
           d="m 114.48277,160.41582 -1.928,-2.69311"
           style="fill:none;stroke:#f8c698;stroke-width:1;stroke-linecap:round;stroke-linejoin:miter;stroke-miterlimit:4;stroke-dasharray:none;stroke-opacity:1" />
        <path
           id="path3220"
           d="m 118.79245,156.24545 -2.04201,-2.59896"
           style="fill:none;stroke:#f8c698;stroke-width:1;stroke-linecap:round;stroke-linejoin:miter;stroke-miterlimit:4;stroke-dasharray:none;stroke-opacity:1" />
        <path
           id="path3222"
           d="m 113.03683,156.27365 2.04201,-2.59896"
           style="fill:none;stroke:#f8c698;stroke-width:1;stroke-linecap:round;stroke-linejoin:miter;stroke-miterlimit:4;stroke-dasharray:none;stroke-opacity:1" />
        <circle
           r="1.8104637"
           cy="163.7014"
           cx="115.89232"
           id="path3224"
           style="fill:#f8c698;fill-opacity:1;stroke:#f8c698;stroke-width:1.04538;stroke-linecap:round;stroke-miterlimit:4;stroke-dasharray:none;stroke-dashoffset:0;stroke-opacity:1" />
        <path
           id="path3240"
           d="m 117.24723,160.441 1.928,-2.69311"
           style="fill:none;stroke:#f8c698;stroke-width:1;stroke-linecap:round;stroke-linejoin:miter;stroke-miterlimit:4;stroke-dasharray:none;stroke-opacity:1" />
      </g>
      <path
         id="path3324"
         d="m 114.47059,131.11039 c 0.32824,1.86854 2.79723,1.92715 3.26912,-0.0101 z"
         style="fill:#151211;fill-opacity:1;stroke:none;stroke-width:0.295714px;stroke-linecap:butt;stroke-linejoin:miter;stroke-opacity:1" />
      <ellipse
         ry="0.30274093"
         rx="0.73762155"
         cy="127.06461"
         cx="112.67818"
         id="path3326"
         style="fill:#151211;fill-opacity:1;stroke:none;stroke-width:1.25927;stroke-linecap:round;stroke-miterlimit:4;stroke-dasharray:none;stroke-dashoffset:0;stroke-opacity:1" />
      <path
         id="path3328"
         d="m 107.58227,127.3358 c -2.17498,0.34441 -0.65791,3.03063 0.86145,2.75519 z"
         style="fill:#f8c698;fill-opacity:1;stroke:none;stroke-width:0.264583px;stroke-linecap:butt;stroke-linejoin:miter;stroke-opacity:1" />
      <path
         id="path3330"
         d="m 124.48759,127.18778 c 2.17498,0.34441 0.65791,3.03063 -0.86145,2.75519 z"
         style="fill:#f8c698;fill-opacity:1;stroke:none;stroke-width:0.264583px;stroke-linecap:butt;stroke-linejoin:miter;stroke-opacity:1" />
      <path
         id="path3332"
         d="m 110.35571,122.46917 c 2.02599,1.91476 4.32467,3.19744 6.59476,4.51116 -1.05913,-1.21481 -3.04925,-2.57764 -2.70642,-3.56956 1.65398,1.25797 4.29706,4.02979 4.96194,3.77392 l 4.93473,4.09749 1.44421,-5.39541 c -2.35304,-12.09461 -18.18544,-11.94399 -18.93742,0.71327 1.09209,0.9549 2.60365,-2.07682 3.7082,-4.13087 z"
         style="fill:#151211;fill-opacity:1;stroke:none;stroke-width:0.264583px;stroke-linecap:butt;stroke-linejoin:miter;stroke-opacity:1" />
      <path
         id="path47"
         d="m 116.06179,136.44109 -0.0334,-20.01181 c -13.35611,0.3251 -13.15863,19.87843 0.0334,20.01181 z"
         style="fill:#000000;fill-opacity:0.2;stroke:none;stroke-width:0.264583px;stroke-linecap:butt;stroke-linejoin:miter;stroke-opacity:1" />
      <path
         id="path872"
         d="m 116.14928,137.16136 0.0886,31.93574 c -11.94756,-0.36855 -14.56832,-13.66348 -9.05321,-18.94813 -2.31139,-3.30769 0.65029,-13.19171 8.96463,-12.98761 z"
         style="fill:#000000;fill-opacity:0.2;stroke:none;stroke-width:0.264583px;stroke-linecap:butt;stroke-linejoin:miter;stroke-opacity:1" />
    </g>
  </g>
</svg>
